%TF.GenerationSoftware,KiCad,Pcbnew,9.0.6-9.0.6~ubuntu22.04.1*%
%TF.CreationDate,2026-01-06T16:57:28-05:00*%
%TF.ProjectId,psc_daughter_brd,7073635f-6461-4756-9768-7465725f6272,rev?*%
%TF.SameCoordinates,Original*%
%TF.FileFunction,Paste,Top*%
%TF.FilePolarity,Positive*%
%FSLAX46Y46*%
G04 Gerber Fmt 4.6, Leading zero omitted, Abs format (unit mm)*
G04 Created by KiCad (PCBNEW 9.0.6-9.0.6~ubuntu22.04.1) date 2026-01-06 16:57:28*
%MOMM*%
%LPD*%
G01*
G04 APERTURE LIST*
G04 Aperture macros list*
%AMRoundRect*
0 Rectangle with rounded corners*
0 $1 Rounding radius*
0 $2 $3 $4 $5 $6 $7 $8 $9 X,Y pos of 4 corners*
0 Add a 4 corners polygon primitive as box body*
4,1,4,$2,$3,$4,$5,$6,$7,$8,$9,$2,$3,0*
0 Add four circle primitives for the rounded corners*
1,1,$1+$1,$2,$3*
1,1,$1+$1,$4,$5*
1,1,$1+$1,$6,$7*
1,1,$1+$1,$8,$9*
0 Add four rect primitives between the rounded corners*
20,1,$1+$1,$2,$3,$4,$5,0*
20,1,$1+$1,$4,$5,$6,$7,0*
20,1,$1+$1,$6,$7,$8,$9,0*
20,1,$1+$1,$8,$9,$2,$3,0*%
G04 Aperture macros list end*
%ADD10C,0.010000*%
%ADD11C,0.000000*%
%ADD12R,0.558800X1.981200*%
%ADD13RoundRect,0.135000X0.135000X0.185000X-0.135000X0.185000X-0.135000X-0.185000X0.135000X-0.185000X0*%
%ADD14RoundRect,0.140000X-0.140000X-0.170000X0.140000X-0.170000X0.140000X0.170000X-0.140000X0.170000X0*%
%ADD15RoundRect,0.190500X-0.190500X-0.571500X0.190500X-0.571500X0.190500X0.571500X-0.190500X0.571500X0*%
%ADD16RoundRect,0.127000X-0.228600X-0.127000X0.228600X-0.127000X0.228600X0.127000X-0.228600X0.127000X0*%
%ADD17RoundRect,0.135000X0.185000X-0.135000X0.185000X0.135000X-0.185000X0.135000X-0.185000X-0.135000X0*%
%ADD18RoundRect,0.200000X0.200000X0.275000X-0.200000X0.275000X-0.200000X-0.275000X0.200000X-0.275000X0*%
%ADD19R,0.600000X1.970000*%
%ADD20RoundRect,0.150000X-0.150000X0.825000X-0.150000X-0.825000X0.150000X-0.825000X0.150000X0.825000X0*%
%ADD21RoundRect,0.140000X0.140000X0.170000X-0.140000X0.170000X-0.140000X-0.170000X0.140000X-0.170000X0*%
%ADD22RoundRect,0.225000X0.250000X-0.225000X0.250000X0.225000X-0.250000X0.225000X-0.250000X-0.225000X0*%
%ADD23RoundRect,0.135000X-0.135000X-0.185000X0.135000X-0.185000X0.135000X0.185000X-0.135000X0.185000X0*%
%ADD24RoundRect,0.140000X0.170000X-0.140000X0.170000X0.140000X-0.170000X0.140000X-0.170000X-0.140000X0*%
%ADD25RoundRect,0.222222X0.577778X-1.552778X0.577778X1.552778X-0.577778X1.552778X-0.577778X-1.552778X0*%
%ADD26RoundRect,0.135000X-0.185000X0.135000X-0.185000X-0.135000X0.185000X-0.135000X0.185000X0.135000X0*%
%ADD27R,0.203200X0.863600*%
%ADD28R,0.863600X0.203200*%
%ADD29RoundRect,0.150000X-0.825000X-0.150000X0.825000X-0.150000X0.825000X0.150000X-0.825000X0.150000X0*%
%ADD30RoundRect,0.225000X-0.225000X-0.250000X0.225000X-0.250000X0.225000X0.250000X-0.225000X0.250000X0*%
%ADD31RoundRect,0.100000X-0.637500X-0.100000X0.637500X-0.100000X0.637500X0.100000X-0.637500X0.100000X0*%
%ADD32RoundRect,0.200000X0.275000X-0.200000X0.275000X0.200000X-0.275000X0.200000X-0.275000X-0.200000X0*%
%ADD33R,0.609600X0.228600*%
%ADD34RoundRect,0.150000X0.150000X-0.825000X0.150000X0.825000X-0.150000X0.825000X-0.150000X-0.825000X0*%
%ADD35R,1.219200X0.457200*%
%ADD36O,1.219200X0.457200*%
%ADD37R,0.685800X2.717800*%
%ADD38R,0.685800X1.701800*%
%ADD39R,1.701800X0.685800*%
%ADD40RoundRect,0.190500X0.190500X0.571500X-0.190500X0.571500X-0.190500X-0.571500X0.190500X-0.571500X0*%
%ADD41RoundRect,0.127000X0.228600X0.127000X-0.228600X0.127000X-0.228600X-0.127000X0.228600X-0.127000X0*%
%ADD42RoundRect,0.225000X0.225000X0.250000X-0.225000X0.250000X-0.225000X-0.250000X0.225000X-0.250000X0*%
%ADD43RoundRect,0.170000X0.210000X-0.170000X0.210000X0.170000X-0.210000X0.170000X-0.210000X-0.170000X0*%
%ADD44RoundRect,0.075000X0.075000X-0.650000X0.075000X0.650000X-0.075000X0.650000X-0.075000X-0.650000X0*%
%ADD45RoundRect,0.035000X-0.750000X-0.105000X0.750000X-0.105000X0.750000X0.105000X-0.750000X0.105000X0*%
%ADD46RoundRect,0.035000X-0.105000X-0.750000X0.105000X-0.750000X0.105000X0.750000X-0.105000X0.750000X0*%
%ADD47R,8.000000X8.000000*%
%ADD48RoundRect,0.100000X-0.712500X-0.100000X0.712500X-0.100000X0.712500X0.100000X-0.712500X0.100000X0*%
%ADD49RoundRect,0.222222X-1.552778X-0.577778X1.552778X-0.577778X1.552778X0.577778X-1.552778X0.577778X0*%
%ADD50R,0.229200X0.804800*%
%ADD51R,3.400001X1.800000*%
%ADD52R,0.700000X1.500000*%
%ADD53R,1.500000X0.700000*%
%ADD54R,2.500000X0.700000*%
%ADD55R,2.387600X1.498600*%
%ADD56R,1.244600X1.498600*%
G04 APERTURE END LIST*
D10*
%TO.C,D4*%
X148671500Y-55248300D02*
X148371500Y-55248300D01*
X148371500Y-54648300D01*
X148671500Y-54648300D01*
X148671500Y-55248300D01*
G36*
X148671500Y-55248300D02*
G01*
X148371500Y-55248300D01*
X148371500Y-54648300D01*
X148671500Y-54648300D01*
X148671500Y-55248300D01*
G37*
X149371500Y-55248300D02*
X149071500Y-55248300D01*
X149071500Y-54648300D01*
X149371500Y-54648300D01*
X149371500Y-55248300D01*
G36*
X149371500Y-55248300D02*
G01*
X149071500Y-55248300D01*
X149071500Y-54648300D01*
X149371500Y-54648300D01*
X149371500Y-55248300D01*
G37*
D11*
%TO.C,U37*%
G36*
X148521500Y-94900700D02*
G01*
X147021499Y-94900700D01*
X147021499Y-93300700D01*
X148521500Y-93300700D01*
X148521500Y-94900700D01*
G37*
G36*
X150221501Y-94900700D02*
G01*
X148721500Y-94900700D01*
X148721500Y-93300700D01*
X150221501Y-93300700D01*
X150221501Y-94900700D01*
G37*
%TO.C,U31*%
G36*
X157437500Y-95014900D02*
G01*
X155937499Y-95014900D01*
X155937499Y-93414900D01*
X157437500Y-93414900D01*
X157437500Y-95014900D01*
G37*
G36*
X159137501Y-95014900D02*
G01*
X157637500Y-95014900D01*
X157637500Y-93414900D01*
X159137501Y-93414900D01*
X159137501Y-95014900D01*
G37*
D10*
%TO.C,D7*%
X154655000Y-119583150D02*
X154355000Y-119583150D01*
X154355000Y-118983150D01*
X154655000Y-118983150D01*
X154655000Y-119583150D01*
G36*
X154655000Y-119583150D02*
G01*
X154355000Y-119583150D01*
X154355000Y-118983150D01*
X154655000Y-118983150D01*
X154655000Y-119583150D01*
G37*
X155355000Y-119583150D02*
X155055000Y-119583150D01*
X155055000Y-118983150D01*
X155355000Y-118983150D01*
X155355000Y-119583150D01*
G36*
X155355000Y-119583150D02*
G01*
X155055000Y-119583150D01*
X155055000Y-118983150D01*
X155355000Y-118983150D01*
X155355000Y-119583150D01*
G37*
%TO.C,D2*%
X168555000Y-119700000D02*
X168255000Y-119700000D01*
X168255000Y-119100000D01*
X168555000Y-119100000D01*
X168555000Y-119700000D01*
G36*
X168555000Y-119700000D02*
G01*
X168255000Y-119700000D01*
X168255000Y-119100000D01*
X168555000Y-119100000D01*
X168555000Y-119700000D01*
G37*
X169255000Y-119700000D02*
X168955000Y-119700000D01*
X168955000Y-119100000D01*
X169255000Y-119100000D01*
X169255000Y-119700000D01*
G36*
X169255000Y-119700000D02*
G01*
X168955000Y-119700000D01*
X168955000Y-119100000D01*
X169255000Y-119100000D01*
X169255000Y-119700000D01*
G37*
%TO.C,D3*%
X175485000Y-119715000D02*
X175185000Y-119715000D01*
X175185000Y-119115000D01*
X175485000Y-119115000D01*
X175485000Y-119715000D01*
G36*
X175485000Y-119715000D02*
G01*
X175185000Y-119715000D01*
X175185000Y-119115000D01*
X175485000Y-119115000D01*
X175485000Y-119715000D01*
G37*
X176185000Y-119715000D02*
X175885000Y-119715000D01*
X175885000Y-119115000D01*
X176185000Y-119115000D01*
X176185000Y-119715000D01*
G36*
X176185000Y-119715000D02*
G01*
X175885000Y-119715000D01*
X175885000Y-119115000D01*
X176185000Y-119115000D01*
X176185000Y-119715000D01*
G37*
%TO.C,D5*%
X157587500Y-55362500D02*
X157287500Y-55362500D01*
X157287500Y-54762500D01*
X157587500Y-54762500D01*
X157587500Y-55362500D01*
G36*
X157587500Y-55362500D02*
G01*
X157287500Y-55362500D01*
X157287500Y-54762500D01*
X157587500Y-54762500D01*
X157587500Y-55362500D01*
G37*
X158287500Y-55362500D02*
X157987500Y-55362500D01*
X157987500Y-54762500D01*
X158287500Y-54762500D01*
X158287500Y-55362500D01*
G36*
X158287500Y-55362500D02*
G01*
X157987500Y-55362500D01*
X157987500Y-54762500D01*
X158287500Y-54762500D01*
X158287500Y-55362500D01*
G37*
%TO.C,D6*%
X161620000Y-119658150D02*
X161320000Y-119658150D01*
X161320000Y-119058150D01*
X161620000Y-119058150D01*
X161620000Y-119658150D01*
G36*
X161620000Y-119658150D02*
G01*
X161320000Y-119658150D01*
X161320000Y-119058150D01*
X161620000Y-119058150D01*
X161620000Y-119658150D01*
G37*
X162320000Y-119658150D02*
X162020000Y-119658150D01*
X162020000Y-119058150D01*
X162320000Y-119058150D01*
X162320000Y-119658150D01*
G36*
X162320000Y-119658150D02*
G01*
X162020000Y-119658150D01*
X162020000Y-119058150D01*
X162320000Y-119058150D01*
X162320000Y-119658150D01*
G37*
%TD*%
D12*
%TO.C,U39*%
X143240000Y-166063800D03*
X144510000Y-166063800D03*
X145780000Y-166063800D03*
X147050000Y-166063800D03*
X147050000Y-161136200D03*
X145780000Y-161136200D03*
X144510000Y-161136200D03*
X143240000Y-161136200D03*
%TD*%
D13*
%TO.C,R60*%
X146660000Y-109400000D03*
X145640000Y-109400000D03*
%TD*%
D14*
%TO.C,C78*%
X161295000Y-120458150D03*
X162255000Y-120458150D03*
%TD*%
D15*
%TO.C,C107*%
X153830000Y-122183150D03*
X155862000Y-122183150D03*
D16*
X154846000Y-122868950D03*
X154846000Y-121497350D03*
%TD*%
D17*
%TO.C,R23*%
X163275000Y-120468150D03*
X163275000Y-119448150D03*
%TD*%
D13*
%TO.C,R50*%
X158992500Y-80262500D03*
X157972500Y-80262500D03*
%TD*%
D18*
%TO.C,R36*%
X158612500Y-60762500D03*
X156962500Y-60762500D03*
%TD*%
D19*
%TO.C,U14*%
X177745000Y-126015000D03*
X176475000Y-126015000D03*
X175205000Y-126015000D03*
X173935000Y-126015000D03*
X173935000Y-130965000D03*
X175205000Y-130965000D03*
X176475000Y-130965000D03*
X177745000Y-130965000D03*
%TD*%
D20*
%TO.C,U19*%
X156805000Y-136848150D03*
X155535000Y-136848150D03*
X154265000Y-136848150D03*
X152995000Y-136848150D03*
X152995000Y-141798150D03*
X154265000Y-141798150D03*
X155535000Y-141798150D03*
X156805000Y-141798150D03*
%TD*%
D13*
%TO.C,R27*%
X162330000Y-144173150D03*
X161310000Y-144173150D03*
%TD*%
D21*
%TO.C,C141*%
X158022500Y-89462500D03*
X157062500Y-89462500D03*
%TD*%
D22*
%TO.C,C60*%
X170650000Y-150930000D03*
X170650000Y-149380000D03*
%TD*%
D13*
%TO.C,R72*%
X151150000Y-157250000D03*
X150130000Y-157250000D03*
%TD*%
D17*
%TO.C,R4*%
X169385000Y-134535000D03*
X169385000Y-133515000D03*
%TD*%
D13*
%TO.C,R21*%
X176345000Y-144365000D03*
X175325000Y-144365000D03*
%TD*%
D21*
%TO.C,C176*%
X149106500Y-89348300D03*
X148146500Y-89348300D03*
%TD*%
D22*
%TO.C,C62*%
X159340000Y-157835000D03*
X159340000Y-156285000D03*
%TD*%
D13*
%TO.C,R33*%
X155365000Y-144098150D03*
X154345000Y-144098150D03*
%TD*%
%TO.C,R71*%
X151209100Y-147750001D03*
X150189100Y-147750001D03*
%TD*%
D21*
%TO.C,C159*%
X148146500Y-70648300D03*
X147186500Y-70648300D03*
%TD*%
D23*
%TO.C,R59*%
X147800000Y-109450000D03*
X148820000Y-109450000D03*
%TD*%
D24*
%TO.C,C85*%
X160830000Y-134473150D03*
X160830000Y-133513150D03*
%TD*%
D14*
%TO.C,C50*%
X170321000Y-103125000D03*
X171281000Y-103125000D03*
%TD*%
D25*
%TO.C,TP2*%
X143600000Y-45100000D03*
%TD*%
D26*
%TO.C,R12*%
X164781000Y-109380000D03*
X164781000Y-110400000D03*
%TD*%
%TO.C,R5*%
X168385000Y-133515000D03*
X168385000Y-134535000D03*
%TD*%
D27*
%TO.C,U41*%
X152863801Y-169741200D03*
X152463799Y-169741200D03*
X152063800Y-169741200D03*
X151663801Y-169741200D03*
X151263799Y-169741200D03*
D28*
X151136700Y-170515900D03*
D27*
X151263799Y-171290600D03*
X151663801Y-171290600D03*
X152063800Y-171290600D03*
X152463799Y-171290600D03*
X152863801Y-171290600D03*
D28*
X152990900Y-170515900D03*
%TD*%
D29*
%TO.C,U3*%
X168401000Y-94720000D03*
X168401000Y-95990000D03*
X168401000Y-97260000D03*
X168401000Y-98530000D03*
X173351000Y-98530000D03*
X173351000Y-97260000D03*
X173351000Y-95990000D03*
X173351000Y-94720000D03*
%TD*%
D14*
%TO.C,C88*%
X154330000Y-120383150D03*
X155290000Y-120383150D03*
%TD*%
D26*
%TO.C,R32*%
X154865000Y-133398150D03*
X154865000Y-134418150D03*
%TD*%
D13*
%TO.C,R3*%
X169275000Y-124025000D03*
X168255000Y-124025000D03*
%TD*%
D30*
%TO.C,C188*%
X143100000Y-143750000D03*
X144650000Y-143750000D03*
%TD*%
D31*
%TO.C,U5*%
X167918500Y-86200000D03*
X167918500Y-86850000D03*
X167918500Y-87500000D03*
X167918500Y-88150000D03*
X167918500Y-88800000D03*
X167918500Y-89450000D03*
X167918500Y-90100000D03*
X167918500Y-90750000D03*
X167918500Y-91400000D03*
X167918500Y-92050000D03*
X173643500Y-92050000D03*
X173643500Y-91400000D03*
X173643500Y-90750000D03*
X173643500Y-90100000D03*
X173643500Y-89450000D03*
X173643500Y-88800000D03*
X173643500Y-88150000D03*
X173643500Y-87500000D03*
X173643500Y-86850000D03*
X173643500Y-86200000D03*
%TD*%
D21*
%TO.C,C140*%
X160022500Y-89462500D03*
X159062500Y-89462500D03*
%TD*%
D12*
%TO.C,U40*%
X143240000Y-154913800D03*
X144510000Y-154913800D03*
X145780000Y-154913800D03*
X147050000Y-154913800D03*
X147050000Y-149986200D03*
X145780000Y-149986200D03*
X144510000Y-149986200D03*
X143240000Y-149986200D03*
%TD*%
D32*
%TO.C,R10*%
X173700997Y-54790000D03*
X173700997Y-53140000D03*
%TD*%
D20*
%TO.C,U2*%
X170705000Y-136965000D03*
X169435000Y-136965000D03*
X168165000Y-136965000D03*
X166895000Y-136965000D03*
X166895000Y-141915000D03*
X168165000Y-141915000D03*
X169435000Y-141915000D03*
X170705000Y-141915000D03*
%TD*%
D17*
%TO.C,R11*%
X170800000Y-116200000D03*
X170800000Y-115180000D03*
%TD*%
D20*
%TO.C,U28*%
X159522497Y-72977700D03*
X158252497Y-72977700D03*
X156982497Y-72977700D03*
X155712497Y-72977700D03*
X155712497Y-77927700D03*
X156982497Y-77927700D03*
X158252497Y-77927700D03*
X159522497Y-77927700D03*
%TD*%
D19*
%TO.C,U27*%
X159672494Y-63382500D03*
X158402494Y-63382500D03*
X157132494Y-63382500D03*
X155862494Y-63382500D03*
X155862494Y-68332500D03*
X157132494Y-68332500D03*
X158402494Y-68332500D03*
X159672494Y-68332500D03*
%TD*%
D13*
%TO.C,R66*%
X144220000Y-158450000D03*
X143200000Y-158450000D03*
%TD*%
D33*
%TO.C,CR6*%
X146198200Y-146550000D03*
X146198200Y-147049999D03*
X146198200Y-147549998D03*
X147900000Y-147549998D03*
X147900000Y-147049999D03*
X147900000Y-146550000D03*
%TD*%
D15*
%TO.C,C105*%
X160795000Y-122258150D03*
X162827000Y-122258150D03*
D16*
X161811000Y-122943950D03*
X161811000Y-121572350D03*
%TD*%
D13*
%TO.C,R30*%
X155375000Y-123908150D03*
X154355000Y-123908150D03*
%TD*%
D21*
%TO.C,C177*%
X147106500Y-89348300D03*
X146146500Y-89348300D03*
%TD*%
D13*
%TO.C,R6*%
X169265000Y-144215000D03*
X168245000Y-144215000D03*
%TD*%
D24*
%TO.C,C8*%
X167385000Y-134515000D03*
X167385000Y-133555000D03*
%TD*%
D17*
%TO.C,R55*%
X147046500Y-55548300D03*
X147046500Y-54528300D03*
%TD*%
%TO.C,R1*%
X167210000Y-120520000D03*
X167210000Y-119500000D03*
%TD*%
D27*
%TO.C,U38*%
X144700000Y-171400000D03*
X145100002Y-171400000D03*
X145500001Y-171400000D03*
X145900000Y-171400000D03*
X146300002Y-171400000D03*
D28*
X146427101Y-170625300D03*
D27*
X146300002Y-169850600D03*
X145900000Y-169850600D03*
X145500001Y-169850600D03*
X145100002Y-169850600D03*
X144700000Y-169850600D03*
D28*
X144572901Y-170625300D03*
%TD*%
D17*
%TO.C,R29*%
X156310000Y-120393150D03*
X156310000Y-119373150D03*
%TD*%
%TO.C,R64*%
X149146500Y-88358300D03*
X149146500Y-87338300D03*
%TD*%
D24*
%TO.C,C75*%
X174585000Y-134525000D03*
X174585000Y-133565000D03*
%TD*%
D23*
%TO.C,R61*%
X145790000Y-103850000D03*
X146810000Y-103850000D03*
%TD*%
D34*
%TO.C,U10*%
X172890997Y-62415000D03*
X174160997Y-62415000D03*
X175430997Y-62415000D03*
X176700997Y-62415000D03*
X176700997Y-57465000D03*
X175430997Y-57465000D03*
X174160997Y-57465000D03*
X172890997Y-57465000D03*
%TD*%
D13*
%TO.C,R67*%
X144239100Y-147834100D03*
X143219100Y-147834100D03*
%TD*%
D17*
%TO.C,R19*%
X176585000Y-134555000D03*
X176585000Y-133535000D03*
%TD*%
D13*
%TO.C,R68*%
X144230000Y-157200000D03*
X143210000Y-157200000D03*
%TD*%
D35*
%TO.C,U35*%
X146660000Y-105649998D03*
D36*
X146660000Y-106599999D03*
X146660000Y-107550000D03*
X149280000Y-107550000D03*
X149280000Y-105649998D03*
%TD*%
D34*
%TO.C,U11*%
X166770997Y-62465000D03*
X168040997Y-62465000D03*
X169310997Y-62465000D03*
X170580997Y-62465000D03*
X170580997Y-57515000D03*
X169310997Y-57515000D03*
X168040997Y-57515000D03*
X166770997Y-57515000D03*
%TD*%
D30*
%TO.C,C100*%
X149150000Y-125400000D03*
X150700000Y-125400000D03*
%TD*%
D17*
%TO.C,R31*%
X155865000Y-134418150D03*
X155865000Y-133398150D03*
%TD*%
%TO.C,R22*%
X160275000Y-120478150D03*
X160275000Y-119458150D03*
%TD*%
D33*
%TO.C,CR7*%
X153279100Y-157765900D03*
X153279100Y-158265899D03*
X153279100Y-158765898D03*
X154980900Y-158765898D03*
X154980900Y-158265899D03*
X154980900Y-157765900D03*
%TD*%
D23*
%TO.C,R46*%
X158342500Y-70762500D03*
X159362500Y-70762500D03*
%TD*%
D21*
%TO.C,C151*%
X149346500Y-59248300D03*
X148386500Y-59248300D03*
%TD*%
D26*
%TO.C,R26*%
X161830000Y-133473150D03*
X161830000Y-134493150D03*
%TD*%
D37*
%TO.C,U12*%
X170781000Y-112617500D03*
D38*
X172051000Y-113125500D03*
X173321000Y-113125500D03*
D39*
X174781500Y-111665000D03*
X174781500Y-110395000D03*
X174781500Y-109125000D03*
X174781500Y-107855000D03*
X174781500Y-106585000D03*
D38*
X173321000Y-105124500D03*
X172051000Y-105124500D03*
X170781000Y-105124500D03*
X169511000Y-105124500D03*
X168241000Y-105124500D03*
D39*
X166780500Y-106585000D03*
X166780500Y-107855000D03*
X166780500Y-109125000D03*
X166780500Y-110395000D03*
X166780500Y-111665000D03*
D38*
X168241000Y-113125500D03*
X169511000Y-113125500D03*
%TD*%
D22*
%TO.C,C61*%
X164150000Y-150905000D03*
X164150000Y-149355000D03*
%TD*%
D14*
%TO.C,C1*%
X168230000Y-120500000D03*
X169190000Y-120500000D03*
%TD*%
D21*
%TO.C,C132*%
X159942500Y-81362500D03*
X158982500Y-81362500D03*
%TD*%
D14*
%TO.C,C170*%
X145790000Y-102650003D03*
X146750000Y-102650003D03*
%TD*%
D25*
%TO.C,TP3*%
X177000000Y-45000000D03*
%TD*%
D40*
%TO.C,C38*%
X158778500Y-57276700D03*
X156746500Y-57276700D03*
D41*
X157762500Y-56590900D03*
X157762500Y-57962500D03*
%TD*%
D21*
%TO.C,C51*%
X169261000Y-103125000D03*
X168301000Y-103125000D03*
%TD*%
D40*
%TO.C,C35*%
X149862500Y-57162500D03*
X147830500Y-57162500D03*
D41*
X148846500Y-56476700D03*
X148846500Y-57848300D03*
%TD*%
D21*
%TO.C,C167*%
X151026500Y-81248300D03*
X150066500Y-81248300D03*
%TD*%
D34*
%TO.C,U6*%
X169158497Y-82100000D03*
X170428497Y-82100000D03*
X171698497Y-82100000D03*
X172968497Y-82100000D03*
X172968497Y-77150000D03*
X171698497Y-77150000D03*
X170428497Y-77150000D03*
X169158497Y-77150000D03*
%TD*%
D17*
%TO.C,R13*%
X173375000Y-116235000D03*
X173375000Y-115215000D03*
%TD*%
D42*
%TO.C,C153*%
X146510000Y-112450000D03*
X144960000Y-112450000D03*
%TD*%
D34*
%TO.C,U7*%
X172941500Y-70940000D03*
X174211500Y-70940000D03*
X175481500Y-70940000D03*
X176751500Y-70940000D03*
X176751500Y-65990000D03*
X175481500Y-65990000D03*
X174211500Y-65990000D03*
X172941500Y-65990000D03*
%TD*%
D43*
%TO.C,U20*%
X145810000Y-128090000D03*
X146750000Y-128090000D03*
X145810000Y-127250000D03*
X146750000Y-127250000D03*
D44*
X145280000Y-129820000D03*
X145780000Y-129820000D03*
X146280000Y-129820000D03*
X146780000Y-129820000D03*
X147280000Y-129820000D03*
X147280000Y-125520000D03*
X146780000Y-125520000D03*
X146280000Y-125520000D03*
X145780000Y-125520000D03*
X145280000Y-125520000D03*
%TD*%
D12*
%TO.C,U43*%
X150160000Y-154913800D03*
X151430000Y-154913800D03*
X152700000Y-154913800D03*
X153970000Y-154913800D03*
X153970000Y-149986200D03*
X152700000Y-149986200D03*
X151430000Y-149986200D03*
X150160000Y-149986200D03*
%TD*%
D45*
%TO.C,U13*%
X161730000Y-155380000D03*
X161730000Y-155880000D03*
X161730000Y-156380000D03*
X161730000Y-156880000D03*
X161730000Y-157380000D03*
X161730000Y-157880000D03*
X161730000Y-158380000D03*
X161730000Y-158880000D03*
X161730000Y-159380000D03*
X161730000Y-159880000D03*
X161730000Y-160380000D03*
X161730000Y-160880000D03*
X161730000Y-161380000D03*
X161730000Y-161880000D03*
X161730000Y-162380000D03*
X161730000Y-162880000D03*
D46*
X163650000Y-164800000D03*
X164150000Y-164800000D03*
X164650000Y-164800000D03*
X165150000Y-164800000D03*
X165650000Y-164800000D03*
X166150000Y-164800000D03*
X166650000Y-164800000D03*
X167150000Y-164800000D03*
X167650000Y-164800000D03*
X168150000Y-164800000D03*
X168650000Y-164800000D03*
X169150000Y-164800000D03*
X169650000Y-164800000D03*
X170150000Y-164800000D03*
X170650000Y-164800000D03*
X171150000Y-164800000D03*
D45*
X173070000Y-162880000D03*
X173070000Y-162380000D03*
X173070000Y-161880000D03*
X173070000Y-161380000D03*
X173070000Y-160880000D03*
X173070000Y-160380000D03*
X173070000Y-159880000D03*
X173070000Y-159380000D03*
X173070000Y-158880000D03*
X173070000Y-158380000D03*
X173070000Y-157880000D03*
X173070000Y-157380000D03*
X173070000Y-156880000D03*
X173070000Y-156380000D03*
X173070000Y-155880000D03*
X173070000Y-155380000D03*
D46*
X171150000Y-153460000D03*
X170650000Y-153460000D03*
X170150000Y-153460000D03*
X169650000Y-153460000D03*
X169150000Y-153460000D03*
X168650000Y-153460000D03*
X168150000Y-153460000D03*
X167650000Y-153460000D03*
X167150000Y-153460000D03*
X166650000Y-153460000D03*
X166150000Y-153460000D03*
X165650000Y-153460000D03*
X165150000Y-153460000D03*
X164650000Y-153460000D03*
X164150000Y-153460000D03*
X163650000Y-153460000D03*
D47*
X167400000Y-159130000D03*
%TD*%
D26*
%TO.C,R20*%
X175585000Y-133545000D03*
X175585000Y-134565000D03*
%TD*%
D30*
%TO.C,C195*%
X150300000Y-143800000D03*
X151850000Y-143800000D03*
%TD*%
D18*
%TO.C,R56*%
X149696500Y-60648300D03*
X148046500Y-60648300D03*
%TD*%
D33*
%TO.C,CR5*%
X146550000Y-157750002D03*
X146550000Y-158250001D03*
X146550000Y-158750000D03*
X148251800Y-158750000D03*
X148251800Y-158250001D03*
X148251800Y-157750002D03*
%TD*%
D21*
%TO.C,C169*%
X147066500Y-81248300D03*
X146106500Y-81248300D03*
%TD*%
D13*
%TO.C,R70*%
X151150000Y-158500000D03*
X150130000Y-158500000D03*
%TD*%
D48*
%TO.C,U36*%
X146434000Y-83173300D03*
X146434000Y-83823300D03*
X146434000Y-84473300D03*
X146434000Y-85123300D03*
X150659000Y-85123300D03*
X150659000Y-84473300D03*
X150659000Y-83823300D03*
X150659000Y-83173300D03*
%TD*%
D49*
%TO.C,TP4*%
X161200000Y-187050000D03*
%TD*%
D20*
%TO.C,U34*%
X150606497Y-72863500D03*
X149336497Y-72863500D03*
X148066497Y-72863500D03*
X146796497Y-72863500D03*
X146796497Y-77813500D03*
X148066497Y-77813500D03*
X149336497Y-77813500D03*
X150606497Y-77813500D03*
%TD*%
D17*
%TO.C,R28*%
X153310000Y-120403150D03*
X153310000Y-119383150D03*
%TD*%
D14*
%TO.C,C27*%
X169291000Y-73625000D03*
X170251000Y-73625000D03*
%TD*%
D32*
%TO.C,R9*%
X171700997Y-54790000D03*
X171700997Y-53140000D03*
%TD*%
D15*
%TO.C,C103*%
X174685000Y-122300800D03*
X176717000Y-122300800D03*
D16*
X175701000Y-122986600D03*
X175701000Y-121615000D03*
%TD*%
D42*
%TO.C,C160*%
X146510000Y-110800000D03*
X144960000Y-110800000D03*
%TD*%
D17*
%TO.C,R42*%
X159662500Y-55662500D03*
X159662500Y-54642500D03*
%TD*%
D12*
%TO.C,U42*%
X150160000Y-166063800D03*
X151430000Y-166063800D03*
X152700000Y-166063800D03*
X153970000Y-166063800D03*
X153970000Y-161136200D03*
X152700000Y-161136200D03*
X151430000Y-161136200D03*
X150160000Y-161136200D03*
%TD*%
D26*
%TO.C,R15*%
X164781000Y-111625000D03*
X164781000Y-112645000D03*
%TD*%
D14*
%TO.C,C186*%
X143120000Y-145250000D03*
X144080000Y-145250000D03*
%TD*%
D13*
%TO.C,R34*%
X150010000Y-124075000D03*
X148990000Y-124075000D03*
%TD*%
D19*
%TO.C,U1*%
X170670000Y-126050000D03*
X169400000Y-126050000D03*
X168130000Y-126050000D03*
X166860000Y-126050000D03*
X166860000Y-131000000D03*
X168130000Y-131000000D03*
X169400000Y-131000000D03*
X170670000Y-131000000D03*
%TD*%
D48*
%TO.C,U30*%
X155350000Y-83287500D03*
X155350000Y-83937500D03*
X155350000Y-84587500D03*
X155350000Y-85237500D03*
X159575000Y-85237500D03*
X159575000Y-84587500D03*
X159575000Y-83937500D03*
X159575000Y-83287500D03*
%TD*%
D21*
%TO.C,C21*%
X171143500Y-84565200D03*
X170183500Y-84565200D03*
%TD*%
D50*
%TO.C,U37*%
X150196501Y-92648300D03*
X149746502Y-92648300D03*
X149296500Y-92648300D03*
X148846501Y-92648300D03*
X148396499Y-92648300D03*
X147946500Y-92648300D03*
X147496501Y-92648300D03*
X147046499Y-92648300D03*
X147046499Y-95553100D03*
X147496498Y-95553100D03*
X147946500Y-95553100D03*
X148396499Y-95553100D03*
X148846501Y-95553100D03*
X149296500Y-95553100D03*
X149746499Y-95553100D03*
X150196501Y-95553100D03*
D51*
X148621500Y-94100700D03*
%TD*%
D17*
%TO.C,R54*%
X150746500Y-55548300D03*
X150746500Y-54528300D03*
%TD*%
%TO.C,R52*%
X158062500Y-88472500D03*
X158062500Y-87452500D03*
%TD*%
D21*
%TO.C,C133*%
X157942500Y-81362500D03*
X156982500Y-81362500D03*
%TD*%
D17*
%TO.C,R53*%
X157062500Y-88472500D03*
X157062500Y-87452500D03*
%TD*%
D14*
%TO.C,C26*%
X171281000Y-73625000D03*
X172241000Y-73625000D03*
%TD*%
D42*
%TO.C,C52*%
X169056000Y-101625000D03*
X167506000Y-101625000D03*
%TD*%
D21*
%TO.C,C142*%
X156022500Y-89462500D03*
X155062500Y-89462500D03*
%TD*%
D13*
%TO.C,R69*%
X144189100Y-146584100D03*
X143169100Y-146584100D03*
%TD*%
D17*
%TO.C,R2*%
X170210000Y-120510000D03*
X170210000Y-119490000D03*
%TD*%
D50*
%TO.C,U31*%
X159112501Y-92762500D03*
X158662502Y-92762500D03*
X158212500Y-92762500D03*
X157762501Y-92762500D03*
X157312499Y-92762500D03*
X156862500Y-92762500D03*
X156412501Y-92762500D03*
X155962499Y-92762500D03*
X155962499Y-95667300D03*
X156412498Y-95667300D03*
X156862500Y-95667300D03*
X157312499Y-95667300D03*
X157762501Y-95667300D03*
X158212500Y-95667300D03*
X158662499Y-95667300D03*
X159112501Y-95667300D03*
D51*
X157537500Y-94214900D03*
%TD*%
D52*
%TO.C,U32*%
X145870000Y-119850000D03*
X147140000Y-119850000D03*
X148410000Y-119850000D03*
D53*
X149290000Y-117700000D03*
D52*
X148410000Y-115550000D03*
X147140000Y-115550000D03*
X145870000Y-115550000D03*
D54*
X145390000Y-117700000D03*
%TD*%
D13*
%TO.C,R73*%
X151209100Y-146500001D03*
X150189100Y-146500001D03*
%TD*%
D17*
%TO.C,R25*%
X162830000Y-134493150D03*
X162830000Y-133473150D03*
%TD*%
D14*
%TO.C,C148*%
X145320000Y-123575000D03*
X146280000Y-123575000D03*
%TD*%
D21*
%TO.C,C168*%
X149026500Y-81248300D03*
X148066500Y-81248300D03*
%TD*%
%TO.C,C134*%
X155982500Y-81362500D03*
X155022500Y-81362500D03*
%TD*%
D19*
%TO.C,U16*%
X163735000Y-126008150D03*
X162465000Y-126008150D03*
X161195000Y-126008150D03*
X159925000Y-126008150D03*
X159925000Y-130958150D03*
X161195000Y-130958150D03*
X162465000Y-130958150D03*
X163735000Y-130958150D03*
%TD*%
D24*
%TO.C,C95*%
X153865000Y-134398150D03*
X153865000Y-133438150D03*
%TD*%
D30*
%TO.C,C147*%
X145325000Y-122275000D03*
X146875000Y-122275000D03*
%TD*%
D33*
%TO.C,CR8*%
X153150000Y-146500002D03*
X153150000Y-147000001D03*
X153150000Y-147500000D03*
X154851800Y-147500000D03*
X154851800Y-147000001D03*
X154851800Y-146500002D03*
%TD*%
D13*
%TO.C,R18*%
X176345000Y-124065000D03*
X175325000Y-124065000D03*
%TD*%
D22*
%TO.C,C155*%
X153950000Y-92775000D03*
X153950000Y-91225000D03*
%TD*%
D13*
%TO.C,R24*%
X162340000Y-123983150D03*
X161320000Y-123983150D03*
%TD*%
D23*
%TO.C,R58*%
X149426500Y-70648300D03*
X150446500Y-70648300D03*
%TD*%
D17*
%TO.C,R17*%
X177185000Y-120535000D03*
X177185000Y-119515000D03*
%TD*%
D21*
%TO.C,C116*%
X158262500Y-59362500D03*
X157302500Y-59362500D03*
%TD*%
D17*
%TO.C,R65*%
X148146500Y-88358300D03*
X148146500Y-87338300D03*
%TD*%
D22*
%TO.C,C63*%
X167650000Y-150905000D03*
X167650000Y-149355000D03*
%TD*%
D55*
%TO.C,D1*%
X175930900Y-101500000D03*
D56*
X173069100Y-101500000D03*
%TD*%
D17*
%TO.C,R43*%
X155962500Y-55662500D03*
X155962500Y-54642500D03*
%TD*%
D30*
%TO.C,C166*%
X146015000Y-101250001D03*
X147565000Y-101250001D03*
%TD*%
D19*
%TO.C,U18*%
X156770000Y-125933150D03*
X155500000Y-125933150D03*
X154230000Y-125933150D03*
X152960000Y-125933150D03*
X152960000Y-130883150D03*
X154230000Y-130883150D03*
X155500000Y-130883150D03*
X156770000Y-130883150D03*
%TD*%
D13*
%TO.C,R51*%
X157002500Y-80262500D03*
X155982500Y-80262500D03*
%TD*%
%TO.C,R62*%
X150076500Y-80148300D03*
X149056500Y-80148300D03*
%TD*%
%TO.C,R8*%
X170301000Y-74625000D03*
X169281000Y-74625000D03*
%TD*%
D15*
%TO.C,C101*%
X167730000Y-122300000D03*
X169762000Y-122300000D03*
D16*
X168746000Y-122985800D03*
X168746000Y-121614200D03*
%TD*%
D13*
%TO.C,R14*%
X175525000Y-115250000D03*
X174505000Y-115250000D03*
%TD*%
%TO.C,R57*%
X148830000Y-112500000D03*
X147810000Y-112500000D03*
%TD*%
D19*
%TO.C,U33*%
X150756494Y-63268300D03*
X149486494Y-63268300D03*
X148216494Y-63268300D03*
X146946494Y-63268300D03*
X146946494Y-68218300D03*
X148216494Y-68218300D03*
X149486494Y-68218300D03*
X150756494Y-68218300D03*
%TD*%
D20*
%TO.C,U15*%
X177890000Y-136965000D03*
X176620000Y-136965000D03*
X175350000Y-136965000D03*
X174080000Y-136965000D03*
X174080000Y-141915000D03*
X175350000Y-141915000D03*
X176620000Y-141915000D03*
X177890000Y-141915000D03*
%TD*%
D21*
%TO.C,C175*%
X151106500Y-89348300D03*
X150146500Y-89348300D03*
%TD*%
D14*
%TO.C,C193*%
X150240000Y-145250000D03*
X151200000Y-145250000D03*
%TD*%
D22*
%TO.C,C157*%
X145100000Y-92650000D03*
X145100000Y-91100000D03*
%TD*%
D34*
%TO.C,U9*%
X166770997Y-71075000D03*
X168040997Y-71075000D03*
X169310997Y-71075000D03*
X170580997Y-71075000D03*
X170580997Y-66125000D03*
X169310997Y-66125000D03*
X168040997Y-66125000D03*
X166770997Y-66125000D03*
%TD*%
D49*
%TO.C,TP5*%
X157600000Y-112200000D03*
%TD*%
D20*
%TO.C,U17*%
X163770000Y-136923150D03*
X162500000Y-136923150D03*
X161230000Y-136923150D03*
X159960000Y-136923150D03*
X159960000Y-141873150D03*
X161230000Y-141873150D03*
X162500000Y-141873150D03*
X163770000Y-141873150D03*
%TD*%
D17*
%TO.C,R16*%
X174185000Y-120535000D03*
X174185000Y-119515000D03*
%TD*%
D30*
%TO.C,C59*%
X175700000Y-157930000D03*
X177250000Y-157930000D03*
%TD*%
D13*
%TO.C,R63*%
X148086500Y-80148300D03*
X147066500Y-80148300D03*
%TD*%
%TO.C,R7*%
X172291000Y-74625000D03*
X171271000Y-74625000D03*
%TD*%
D21*
%TO.C,C124*%
X157062500Y-70762500D03*
X156102500Y-70762500D03*
%TD*%
D14*
%TO.C,C68*%
X175205000Y-120515000D03*
X176165000Y-120515000D03*
%TD*%
M02*
