%TF.GenerationSoftware,KiCad,Pcbnew,9.0.6-9.0.6~ubuntu22.04.1*%
%TF.CreationDate,2026-01-06T16:57:28-05:00*%
%TF.ProjectId,psc_daughter_brd,7073635f-6461-4756-9768-7465725f6272,rev?*%
%TF.SameCoordinates,Original*%
%TF.FileFunction,Soldermask,Bot*%
%TF.FilePolarity,Negative*%
%FSLAX46Y46*%
G04 Gerber Fmt 4.6, Leading zero omitted, Abs format (unit mm)*
G04 Created by KiCad (PCBNEW 9.0.6-9.0.6~ubuntu22.04.1) date 2026-01-06 16:57:28*
%MOMM*%
%LPD*%
G01*
G04 APERTURE LIST*
G04 Aperture macros list*
%AMRoundRect*
0 Rectangle with rounded corners*
0 $1 Rounding radius*
0 $2 $3 $4 $5 $6 $7 $8 $9 X,Y pos of 4 corners*
0 Add a 4 corners polygon primitive as box body*
4,1,4,$2,$3,$4,$5,$6,$7,$8,$9,$2,$3,0*
0 Add four circle primitives for the rounded corners*
1,1,$1+$1,$2,$3*
1,1,$1+$1,$4,$5*
1,1,$1+$1,$6,$7*
1,1,$1+$1,$8,$9*
0 Add four rect primitives between the rounded corners*
20,1,$1+$1,$2,$3,$4,$5,0*
20,1,$1+$1,$4,$5,$6,$7,0*
20,1,$1+$1,$6,$7,$8,$9,0*
20,1,$1+$1,$8,$9,$2,$3,0*%
G04 Aperture macros list end*
%ADD10C,1.000000*%
%ADD11C,3.600000*%
%ADD12C,6.400000*%
%ADD13RoundRect,0.140000X-0.140000X-0.170000X0.140000X-0.170000X0.140000X0.170000X-0.140000X0.170000X0*%
%ADD14RoundRect,0.140000X0.140000X0.170000X-0.140000X0.170000X-0.140000X-0.170000X0.140000X-0.170000X0*%
%ADD15RoundRect,0.225000X0.225000X0.250000X-0.225000X0.250000X-0.225000X-0.250000X0.225000X-0.250000X0*%
%ADD16RoundRect,0.225000X0.250000X-0.225000X0.250000X0.225000X-0.250000X0.225000X-0.250000X-0.225000X0*%
%ADD17RoundRect,0.140000X-0.170000X0.140000X-0.170000X-0.140000X0.170000X-0.140000X0.170000X0.140000X0*%
%ADD18RoundRect,0.225000X-0.250000X0.225000X-0.250000X-0.225000X0.250000X-0.225000X0.250000X0.225000X0*%
%ADD19RoundRect,0.140000X0.170000X-0.140000X0.170000X0.140000X-0.170000X0.140000X-0.170000X-0.140000X0*%
%ADD20RoundRect,0.225000X-0.225000X-0.250000X0.225000X-0.250000X0.225000X0.250000X-0.225000X0.250000X0*%
%ADD21C,0.830000*%
%ADD22C,1.230000*%
%ADD23RoundRect,0.102000X0.250000X1.000000X-0.250000X1.000000X-0.250000X-1.000000X0.250000X-1.000000X0*%
G04 APERTURE END LIST*
D10*
%TO.C,REF\u002A\u002A*%
X141500000Y-33500000D03*
%TD*%
%TO.C,REF\u002A\u002A*%
X178500000Y-33500000D03*
%TD*%
%TO.C,*%
X178500000Y-190500000D03*
%TD*%
D11*
%TO.C,MT2*%
X145000000Y-187000000D03*
D12*
X145000000Y-187000000D03*
%TD*%
D11*
%TO.C,MT4*%
X175000000Y-37000000D03*
D12*
X175000000Y-37000000D03*
%TD*%
D11*
%TO.C,MT3*%
X175000000Y-187000000D03*
D12*
X175000000Y-187000000D03*
%TD*%
D11*
%TO.C,MT1*%
X145000000Y-37000000D03*
D12*
X145000000Y-37000000D03*
%TD*%
D13*
%TO.C,C87*%
X163765000Y-131608150D03*
X164725000Y-131608150D03*
%TD*%
%TO.C,C58*%
X175375000Y-156900000D03*
X176335000Y-156900000D03*
%TD*%
%TO.C,C146*%
X159462500Y-96762500D03*
X160422500Y-96762500D03*
%TD*%
D14*
%TO.C,C47*%
X168061500Y-56925000D03*
X167101500Y-56925000D03*
%TD*%
D13*
%TO.C,C76*%
X174105000Y-136415000D03*
X175065000Y-136415000D03*
%TD*%
D15*
%TO.C,C40*%
X177056500Y-61725000D03*
X175506500Y-61725000D03*
%TD*%
%TO.C,C23*%
X170356500Y-78025000D03*
X168806500Y-78025000D03*
%TD*%
D14*
%TO.C,C99*%
X161680000Y-153880000D03*
X160720000Y-153880000D03*
%TD*%
%TO.C,C37*%
X174241500Y-65425000D03*
X173281500Y-65425000D03*
%TD*%
D15*
%TO.C,C32*%
X172056500Y-108225000D03*
X170506500Y-108225000D03*
%TD*%
D13*
%TO.C,C20*%
X169915000Y-88775000D03*
X170875000Y-88775000D03*
%TD*%
%TO.C,C67*%
X167690000Y-165150000D03*
X168650000Y-165150000D03*
%TD*%
D16*
%TO.C,C162*%
X152046500Y-66848300D03*
X152046500Y-65298300D03*
%TD*%
%TO.C,C7*%
X170680000Y-130300000D03*
X170680000Y-128750000D03*
%TD*%
D13*
%TO.C,C191*%
X154490000Y-169750000D03*
X155450000Y-169750000D03*
%TD*%
D17*
%TO.C,C97*%
X157125000Y-133315000D03*
X157125000Y-134275000D03*
%TD*%
%TO.C,C173*%
X146146500Y-84468300D03*
X146146500Y-85428300D03*
%TD*%
%TO.C,C163*%
X145846500Y-68888300D03*
X145846500Y-69848300D03*
%TD*%
%TO.C,C13*%
X167925000Y-98690000D03*
X167925000Y-99650000D03*
%TD*%
D18*
%TO.C,C15*%
X169775000Y-91500000D03*
X169775000Y-93050000D03*
%TD*%
D13*
%TO.C,C86*%
X159915000Y-131558150D03*
X160875000Y-131558150D03*
%TD*%
%TO.C,C179*%
X150466500Y-91848300D03*
X151426500Y-91848300D03*
%TD*%
D16*
%TO.C,C89*%
X152980000Y-130133150D03*
X152980000Y-128583150D03*
%TD*%
D19*
%TO.C,C65*%
X159340000Y-156900000D03*
X159340000Y-155940000D03*
%TD*%
D16*
%TO.C,C3*%
X169415000Y-141065000D03*
X169415000Y-139515000D03*
%TD*%
D20*
%TO.C,C17*%
X176375000Y-86275000D03*
X177925000Y-86275000D03*
%TD*%
D16*
%TO.C,C126*%
X154162500Y-72737500D03*
X154162500Y-71187500D03*
%TD*%
%TO.C,C84*%
X163745000Y-130258150D03*
X163745000Y-128708150D03*
%TD*%
D15*
%TO.C,C43*%
X168056500Y-58225000D03*
X166506500Y-58225000D03*
%TD*%
D13*
%TO.C,C49*%
X168200000Y-113450000D03*
X169160000Y-113450000D03*
%TD*%
D19*
%TO.C,C55*%
X166320000Y-151230000D03*
X166320000Y-150270000D03*
%TD*%
D17*
%TO.C,C117*%
X154762500Y-69002500D03*
X154762500Y-69962500D03*
%TD*%
D13*
%TO.C,C102*%
X144990000Y-156370000D03*
X145950000Y-156370000D03*
%TD*%
D20*
%TO.C,C22*%
X174806500Y-80825000D03*
X176356500Y-80825000D03*
%TD*%
D13*
%TO.C,C91*%
X152950000Y-131483150D03*
X153910000Y-131483150D03*
%TD*%
D18*
%TO.C,C187*%
X143250000Y-162150000D03*
X143250000Y-163700000D03*
%TD*%
D19*
%TO.C,C184*%
X148600000Y-154160000D03*
X148600000Y-153200000D03*
%TD*%
D13*
%TO.C,C71*%
X173905000Y-131515000D03*
X174865000Y-131515000D03*
%TD*%
D14*
%TO.C,C190*%
X150160000Y-166578150D03*
X149200000Y-166578150D03*
%TD*%
D20*
%TO.C,C180*%
X150596500Y-97948300D03*
X152146500Y-97948300D03*
%TD*%
D15*
%TO.C,C30*%
X170556500Y-70425000D03*
X169006500Y-70425000D03*
%TD*%
D16*
%TO.C,C2*%
X166880000Y-130250000D03*
X166880000Y-128700000D03*
%TD*%
D17*
%TO.C,C72*%
X177800000Y-133375000D03*
X177800000Y-134335000D03*
%TD*%
D16*
%TO.C,C80*%
X162480000Y-141023150D03*
X162480000Y-139473150D03*
%TD*%
D13*
%TO.C,C4*%
X166885000Y-136415000D03*
X167845000Y-136415000D03*
%TD*%
D14*
%TO.C,C34*%
X176761500Y-71525000D03*
X175801500Y-71525000D03*
%TD*%
D13*
%TO.C,C164*%
X148520000Y-103900000D03*
X149480000Y-103900000D03*
%TD*%
%TO.C,C16*%
X169925000Y-89975000D03*
X170885000Y-89975000D03*
%TD*%
D21*
%TO.C,J1*%
X174100000Y-47000000D03*
D22*
X145900000Y-47000000D03*
D23*
X148400000Y-44800000D03*
X148400000Y-49200000D03*
X149200000Y-44800000D03*
X149200000Y-49200000D03*
X150000000Y-44800000D03*
X150000000Y-49200000D03*
X150800000Y-44800000D03*
X150800000Y-49200000D03*
X151600000Y-44800000D03*
X151600000Y-49200000D03*
X152400000Y-44800000D03*
X152400000Y-49200000D03*
X153200000Y-44800000D03*
X153200000Y-49200000D03*
X154000000Y-44800000D03*
X154000000Y-49200000D03*
X154800000Y-44800000D03*
X154800000Y-49200000D03*
X155600000Y-44800000D03*
X155600000Y-49200000D03*
X156400000Y-44800000D03*
X156400000Y-49200000D03*
X157200000Y-44800000D03*
X157200000Y-49200000D03*
X158000000Y-44800000D03*
X158000000Y-49200000D03*
X158800000Y-44800000D03*
X158800000Y-49200000D03*
X159600000Y-44800000D03*
X159600000Y-49200000D03*
X160400000Y-44800000D03*
X160400000Y-49200000D03*
X161200000Y-44800000D03*
X161200000Y-49200000D03*
X162000000Y-44800000D03*
X162000000Y-49200000D03*
X162800000Y-44800000D03*
X162800000Y-49200000D03*
X163600000Y-44800000D03*
X163600000Y-49200000D03*
X164400000Y-44800000D03*
X164400000Y-49200000D03*
X165200000Y-44800000D03*
X165200000Y-49200000D03*
X166000000Y-44800000D03*
X166000000Y-49200000D03*
X166800000Y-44800000D03*
X166800000Y-49200000D03*
X167600000Y-44800000D03*
X167600000Y-49200000D03*
X168400000Y-44800000D03*
X168400000Y-49200000D03*
X169200000Y-44800000D03*
X169200000Y-49200000D03*
X170000000Y-44800000D03*
X170000000Y-49200000D03*
X170800000Y-44800000D03*
X170800000Y-49200000D03*
X171600000Y-44800000D03*
X171600000Y-49200000D03*
%TD*%
D18*
%TO.C,C6*%
X167015000Y-137715000D03*
X167015000Y-139265000D03*
%TD*%
D13*
%TO.C,C9*%
X166850000Y-131600000D03*
X167810000Y-131600000D03*
%TD*%
D20*
%TO.C,C127*%
X159287500Y-75862500D03*
X160837500Y-75862500D03*
%TD*%
D15*
%TO.C,C28*%
X176756500Y-70225000D03*
X175206500Y-70225000D03*
%TD*%
D16*
%TO.C,C121*%
X160962500Y-66962500D03*
X160962500Y-65412500D03*
%TD*%
D17*
%TO.C,C128*%
X154162500Y-75082500D03*
X154162500Y-76042500D03*
%TD*%
D13*
%TO.C,C181*%
X150546500Y-96648300D03*
X151506500Y-96648300D03*
%TD*%
D20*
%TO.C,C106*%
X145345000Y-129140000D03*
X146895000Y-129140000D03*
%TD*%
D18*
%TO.C,C194*%
X150250000Y-162050000D03*
X150250000Y-163600000D03*
%TD*%
D14*
%TO.C,C104*%
X143250000Y-166700000D03*
X142290000Y-166700000D03*
%TD*%
D13*
%TO.C,C5*%
X170700000Y-131650000D03*
X171660000Y-131650000D03*
%TD*%
D16*
%TO.C,C90*%
X155515000Y-140948150D03*
X155515000Y-139398150D03*
%TD*%
%TO.C,C94*%
X156780000Y-130183150D03*
X156780000Y-128633150D03*
%TD*%
D13*
%TO.C,C82*%
X162450000Y-142373150D03*
X163410000Y-142373150D03*
%TD*%
D20*
%TO.C,C143*%
X159387500Y-90662500D03*
X160937500Y-90662500D03*
%TD*%
D18*
%TO.C,C73*%
X174085000Y-137715000D03*
X174085000Y-139265000D03*
%TD*%
D14*
%TO.C,C39*%
X168041500Y-65525000D03*
X167081500Y-65525000D03*
%TD*%
D15*
%TO.C,C42*%
X174156500Y-58125000D03*
X172606500Y-58125000D03*
%TD*%
%TO.C,C33*%
X168056500Y-66825000D03*
X166506500Y-66825000D03*
%TD*%
D13*
%TO.C,C64*%
X173045000Y-153825000D03*
X174005000Y-153825000D03*
%TD*%
D18*
%TO.C,C172*%
X149346500Y-84573300D03*
X149346500Y-86123300D03*
%TD*%
D14*
%TO.C,C25*%
X170361500Y-76725000D03*
X169401500Y-76725000D03*
%TD*%
D17*
%TO.C,C139*%
X159762500Y-84662500D03*
X159762500Y-85622500D03*
%TD*%
D20*
%TO.C,C11*%
X169275000Y-98650000D03*
X170825000Y-98650000D03*
%TD*%
D13*
%TO.C,C92*%
X155485000Y-142298150D03*
X156445000Y-142298150D03*
%TD*%
D16*
%TO.C,C70*%
X177785000Y-130165000D03*
X177785000Y-128615000D03*
%TD*%
D20*
%TO.C,C145*%
X159512500Y-98062500D03*
X161062500Y-98062500D03*
%TD*%
D13*
%TO.C,C144*%
X159382500Y-91962500D03*
X160342500Y-91962500D03*
%TD*%
D20*
%TO.C,C57*%
X173050000Y-152425000D03*
X174600000Y-152425000D03*
%TD*%
D13*
%TO.C,C189*%
X154520000Y-171300000D03*
X155480000Y-171300000D03*
%TD*%
D18*
%TO.C,C137*%
X158262500Y-84687500D03*
X158262500Y-86237500D03*
%TD*%
%TO.C,C136*%
X156562500Y-84662500D03*
X156562500Y-86212500D03*
%TD*%
D20*
%TO.C,C18*%
X169900000Y-87425000D03*
X171450000Y-87425000D03*
%TD*%
D13*
%TO.C,C77*%
X176605000Y-142465000D03*
X177565000Y-142465000D03*
%TD*%
D19*
%TO.C,C53*%
X165100000Y-151210000D03*
X165100000Y-150250000D03*
%TD*%
D14*
%TO.C,C192*%
X150222500Y-160627750D03*
X149262500Y-160627750D03*
%TD*%
D18*
%TO.C,C93*%
X153115000Y-137598150D03*
X153115000Y-139148150D03*
%TD*%
D16*
%TO.C,C154*%
X145246500Y-72623300D03*
X145246500Y-71073300D03*
%TD*%
D14*
%TO.C,C183*%
X143180000Y-169800000D03*
X142220000Y-169800000D03*
%TD*%
D16*
%TO.C,C161*%
X145846500Y-66748300D03*
X145846500Y-65198300D03*
%TD*%
D17*
%TO.C,C158*%
X152046500Y-68988300D03*
X152046500Y-69948300D03*
%TD*%
D13*
%TO.C,C10*%
X169385000Y-142415000D03*
X170345000Y-142415000D03*
%TD*%
D14*
%TO.C,C185*%
X143186600Y-160621850D03*
X142226600Y-160621850D03*
%TD*%
D17*
%TO.C,C54*%
X160350000Y-162910000D03*
X160350000Y-163870000D03*
%TD*%
D15*
%TO.C,C31*%
X174231500Y-66725000D03*
X172681500Y-66725000D03*
%TD*%
D13*
%TO.C,C19*%
X176345000Y-87650000D03*
X177305000Y-87650000D03*
%TD*%
D14*
%TO.C,C165*%
X148306500Y-75748300D03*
X147346500Y-75748300D03*
%TD*%
D20*
%TO.C,C66*%
X167725000Y-167730000D03*
X169275000Y-167730000D03*
%TD*%
D14*
%TO.C,C46*%
X174161500Y-56825000D03*
X173201500Y-56825000D03*
%TD*%
%TO.C,C44*%
X177081500Y-63025000D03*
X176121500Y-63025000D03*
%TD*%
D18*
%TO.C,C171*%
X147646500Y-84548300D03*
X147646500Y-86098300D03*
%TD*%
D20*
%TO.C,C156*%
X150371500Y-75748300D03*
X151921500Y-75748300D03*
%TD*%
D19*
%TO.C,C56*%
X169675000Y-151210000D03*
X169675000Y-150250000D03*
%TD*%
D17*
%TO.C,C174*%
X150846500Y-84548300D03*
X150846500Y-85508300D03*
%TD*%
%TO.C,C123*%
X160962500Y-69102500D03*
X160962500Y-70062500D03*
%TD*%
D13*
%TO.C,C14*%
X175895000Y-94725000D03*
X176855000Y-94725000D03*
%TD*%
D14*
%TO.C,C182*%
X143150000Y-171534100D03*
X142190000Y-171534100D03*
%TD*%
D13*
%TO.C,C108*%
X145290000Y-130430000D03*
X146250000Y-130430000D03*
%TD*%
D15*
%TO.C,C98*%
X161650000Y-152525000D03*
X160100000Y-152525000D03*
%TD*%
D16*
%TO.C,C79*%
X159945000Y-130208150D03*
X159945000Y-128658150D03*
%TD*%
D14*
%TO.C,C130*%
X157222500Y-75862500D03*
X156262500Y-75862500D03*
%TD*%
D20*
%TO.C,C178*%
X150471500Y-90548300D03*
X152021500Y-90548300D03*
%TD*%
D18*
%TO.C,C83*%
X160080000Y-137673150D03*
X160080000Y-139223150D03*
%TD*%
D16*
%TO.C,C69*%
X173935000Y-130215000D03*
X173935000Y-128665000D03*
%TD*%
D21*
%TO.C,J2*%
X174100000Y-177000000D03*
D22*
X145900000Y-177000000D03*
D23*
X148400000Y-174800000D03*
X148400000Y-179200000D03*
X149200000Y-174800000D03*
X149200000Y-179200000D03*
X150000000Y-174800000D03*
X150000000Y-179200000D03*
X150800000Y-174800000D03*
X150800000Y-179200000D03*
X151600000Y-174800000D03*
X151600000Y-179200000D03*
X152400000Y-174800000D03*
X152400000Y-179200000D03*
X153200000Y-174800000D03*
X153200000Y-179200000D03*
X154000000Y-174800000D03*
X154000000Y-179200000D03*
X154800000Y-174800000D03*
X154800000Y-179200000D03*
X155600000Y-174800000D03*
X155600000Y-179200000D03*
X156400000Y-174800000D03*
X156400000Y-179200000D03*
X157200000Y-174800000D03*
X157200000Y-179200000D03*
X158000000Y-174800000D03*
X158000000Y-179200000D03*
X158800000Y-174800000D03*
X158800000Y-179200000D03*
X159600000Y-174800000D03*
X159600000Y-179200000D03*
X160400000Y-174800000D03*
X160400000Y-179200000D03*
X161200000Y-174800000D03*
X161200000Y-179200000D03*
X162000000Y-174800000D03*
X162000000Y-179200000D03*
X162800000Y-174800000D03*
X162800000Y-179200000D03*
X163600000Y-174800000D03*
X163600000Y-179200000D03*
X164400000Y-174800000D03*
X164400000Y-179200000D03*
X165200000Y-174800000D03*
X165200000Y-179200000D03*
X166000000Y-174800000D03*
X166000000Y-179200000D03*
X166800000Y-174800000D03*
X166800000Y-179200000D03*
X167600000Y-174800000D03*
X167600000Y-179200000D03*
X168400000Y-174800000D03*
X168400000Y-179200000D03*
X169200000Y-174800000D03*
X169200000Y-179200000D03*
X170000000Y-174800000D03*
X170000000Y-179200000D03*
X170800000Y-174800000D03*
X170800000Y-179200000D03*
X171600000Y-174800000D03*
X171600000Y-179200000D03*
%TD*%
D17*
%TO.C,C138*%
X155062500Y-84582500D03*
X155062500Y-85542500D03*
%TD*%
D20*
%TO.C,C12*%
X175925000Y-96125000D03*
X177475000Y-96125000D03*
%TD*%
D13*
%TO.C,C24*%
X174821500Y-82125000D03*
X175781500Y-82125000D03*
%TD*%
D14*
%TO.C,C45*%
X170981500Y-63125000D03*
X170021500Y-63125000D03*
%TD*%
D13*
%TO.C,C29*%
X166720000Y-93075000D03*
X167680000Y-93075000D03*
%TD*%
D15*
%TO.C,C41*%
X170856500Y-61725000D03*
X169306500Y-61725000D03*
%TD*%
D16*
%TO.C,C119*%
X154762500Y-66862500D03*
X154762500Y-65312500D03*
%TD*%
%TO.C,C74*%
X176585000Y-141115000D03*
X176585000Y-139565000D03*
%TD*%
D14*
%TO.C,C36*%
X170561500Y-71725000D03*
X169601500Y-71725000D03*
%TD*%
D13*
%TO.C,C81*%
X159950000Y-136373150D03*
X160910000Y-136373150D03*
%TD*%
%TO.C,C96*%
X152985000Y-136298150D03*
X153945000Y-136298150D03*
%TD*%
D17*
%TO.C,C152*%
X145246500Y-74968300D03*
X145246500Y-75928300D03*
%TD*%
D16*
%TO.C,C48*%
X168200000Y-112100000D03*
X168200000Y-110550000D03*
%TD*%
M02*
