M48
; DRILL file {KiCad 9.0.4-9.0.4-0~ubuntu22.04.1} date 2026-01-05T08:42:20-0500
; FORMAT={-:-/ absolute / metric / decimal}
; #@! TF.CreationDate,2026-01-05T08:42:20-05:00
; #@! TF.GenerationSoftware,Kicad,Pcbnew,9.0.4-9.0.4-0~ubuntu22.04.1
; #@! TF.FileFunction,Plated,1,10,PTH
FMAT,2
METRIC
; #@! TA.AperFunction,Plated,PTH,ViaDrill
T1C0.300
; #@! TA.AperFunction,Plated,PTH,ComponentDrill
T2C3.200
%
G90
G05
T1
X141.05Y-162.45
X141.4Y-166.7
X141.6Y-137.9
X141.8Y-45.1
X141.8Y-135.85
X141.85Y-163.7
X142.2Y-159.8
X142.2Y-169.0
X142.2Y-172.3
X142.3Y-132.9
X143.24Y-159.4
X143.25Y-167.85
X143.3Y-170.65
X143.375Y-117.7
X143.55Y-132.95
X143.8Y-110.8
X143.85Y-112.425
X143.9Y-152.0
X143.9Y-169.85
X143.9Y-171.55
X143.936Y-156.399
X144.446Y-71.048
X144.45Y-153.2
X144.65Y-109.4
X144.65Y-136.1
X144.65Y-142.65
X144.77Y-147.6
X144.8Y-145.25
X144.925Y-172.75
X145.046Y-69.848
X145.06Y-159.35
X145.1Y-93.5
X145.2Y-106.575
X145.246Y-74.148
X145.246Y-76.748
X145.246Y-84.548
X145.3Y-131.125
X145.3Y-138.65
X145.326Y-81.248
X145.6Y-157.25
X145.65Y-173.3
X145.746Y-86.148
X145.75Y-128.075
X145.75Y-153.05
X145.775Y-127.275
X145.8Y-133.35
X145.846Y-64.148
X145.846Y-68.148
X146.147Y-88.548
X146.198Y-145.498
X146.2Y-131.2
X146.25Y-124.3
X146.25Y-172.55
X146.28Y-127.67
X146.326Y-80.148
X146.35Y-91.1
X146.546Y-86.148
X146.55Y-168.5
X146.746Y-75.748
X146.8Y-128.1
X146.825Y-127.275
X147.05Y-96.825
X147.05Y-152.75
X147.08Y-156.58
X147.1Y-132.8
X147.147Y-69.948
X147.175Y-123.5
X147.2Y-145.4
X147.25Y-169.3
X147.28Y-131.17
X147.4Y-171.5
X147.5Y-93.7
X147.5Y-94.5
X147.55Y-167.9
X147.575Y-100.125
X147.65Y-170.65
X147.675Y-102.65
X147.75Y-97.225
X147.8Y-104.0
X148.0Y-125.55
X148.05Y-161.4
X148.11Y-129.19
X148.175Y-134.15
X148.246Y-69.748
X148.25Y-160.6
X148.4Y-47.1
X148.4Y-121.6
X148.4Y-180.95
X148.41Y-113.96
X148.575Y-83.025
X148.6Y-152.4
X148.621Y-94.101
X148.65Y-154.9
X148.675Y-96.8
X148.675Y-98.675
X148.7Y-150.0
X148.75Y-137.076
X148.833Y-159.6
X148.846Y-57.2
X148.95Y-163.6
X149.1Y-135.65
X149.2Y-167.55
X149.2Y-177.6
X149.246Y-75.748
X149.25Y-47.1
X149.35Y-116.775
X149.5Y-103.1
X149.7Y-93.7
X149.7Y-94.5
X149.747Y-91.448
X149.846Y-96.648
X150.0Y-47.1
X150.0Y-123.2
X150.0Y-181.1
X150.05Y-170.55
X150.1Y-169.0
X150.15Y-167.8
X150.16Y-159.53
X150.3Y-126.6
X150.446Y-86.248
X150.8Y-181.15
X150.85Y-47.1
X151.0Y-168.3
X151.046Y-88.548
X151.4Y-153.05
X151.562Y-95.862
X151.6Y-42.7
X151.6Y-181.0
X151.627Y-47.729
X151.726Y-81.248
X151.79Y-148.44
X151.85Y-142.55
X151.85Y-163.3
X151.875Y-176.425
X151.946Y-74.748
X151.95Y-145.0
X152.046Y-68.148
X152.046Y-84.548
X152.046Y-85.548
X152.15Y-157.25
X152.2Y-146.2
X152.246Y-64.348
X152.246Y-91.548
X152.35Y-172.9
X152.374Y-47.443
X152.4Y-42.75
X152.4Y-181.05
X152.463Y-96.862
X152.75Y-153.2
X152.846Y-69.948
X152.865Y-135.248
X152.865Y-140.098
X152.93Y-132.483
X153.062Y-83.487
X153.15Y-181.65
X153.175Y-47.65
X153.2Y-42.75
X153.25Y-176.25
X153.362Y-71.162
X153.7Y-169.75
X153.7Y-171.3
X153.945Y-135.268
X153.95Y-93.7
X153.963Y-69.962
X153.97Y-152.73
X153.975Y-47.678
X154.0Y-42.75
X154.0Y-180.85
X154.05Y-162.75
X154.05Y-170.55
X154.1Y-177.6
X154.162Y-74.263
X154.162Y-76.862
X154.162Y-84.662
X154.23Y-128.583
X154.23Y-132.433
X154.243Y-81.362
X154.5Y-167.9
X154.662Y-86.263
X154.762Y-64.263
X154.762Y-68.263
X154.775Y-47.725
X154.8Y-173.25
X154.8Y-180.7
X154.825Y-46.6
X154.846Y-122.219
X154.85Y-97.7
X155.062Y-88.662
X155.15Y-91.225
X155.243Y-80.263
X155.45Y-169.05
X155.45Y-170.65
X155.463Y-86.263
X155.55Y-148.15
X155.562Y-159.65
X155.565Y-143.198
X155.6Y-43.0
X155.6Y-172.275
X155.6Y-180.75
X155.662Y-75.862
X155.675Y-128.625
X155.975Y-96.975
X156.062Y-70.062
X156.35Y-181.6
X156.4Y-43.075
X156.4Y-93.8
X156.4Y-94.6
X156.45Y-143.23
X156.45Y-171.45
X156.5Y-170.475
X156.665Y-139.398
X156.8Y-113.9
X156.83Y-132.483
X157.13Y-135.08
X157.15Y-181.55
X157.162Y-69.862
X157.175Y-43.05
X157.175Y-172.625
X157.2Y-47.65
X157.5Y-94.3
X157.6Y-96.95
X157.762Y-57.3
X157.95Y-181.65
X158.0Y-43.075
X158.0Y-173.25
X158.162Y-75.862
X158.2Y-97.9
X158.5Y-93.8
X158.5Y-94.7
X158.663Y-91.563
X158.762Y-96.762
X158.8Y-46.4
X158.85Y-180.75
X158.9Y-169.125
X159.34Y-155.12
X159.362Y-86.362
X159.525Y-172.475
X159.6Y-47.55
X159.6Y-180.8
X159.625Y-46.512
X159.71Y-161.37
X159.75Y-168.975
X159.83Y-135.323
X159.83Y-140.173
X159.895Y-132.558
X159.9Y-153.525
X159.963Y-88.662
X160.11Y-118.633
X160.275Y-159.875
X160.29Y-156.93
X160.343Y-159.128
X160.36Y-162.0
X160.362Y-92.763
X160.37Y-156.15
X160.37Y-160.68
X160.375Y-43.05
X160.4Y-50.95
X160.4Y-180.75
X160.463Y-95.962
X160.525Y-168.35
X160.642Y-81.362
X160.75Y-154.725
X160.862Y-74.862
X160.91Y-135.343
X160.963Y-68.263
X160.963Y-84.662
X160.963Y-85.662
X161.162Y-64.462
X161.162Y-91.662
X161.175Y-43.05
X161.195Y-128.658
X161.195Y-132.508
X161.2Y-180.7
X161.25Y-167.775
X161.3Y-163.88
X161.35Y-51.025
X161.362Y-96.962
X161.725Y-154.725
X161.762Y-70.062
X161.811Y-122.294
X161.975Y-47.325
X162.0Y-46.3
X162.0Y-180.7
X162.53Y-143.273
X162.775Y-47.475
X162.8Y-46.275
X162.8Y-180.85
X163.175Y-166.35
X163.41Y-143.41
X163.51Y-118.633
X163.6Y-43.025
X163.6Y-51.075
X163.6Y-173.1
X163.6Y-180.8
X163.63Y-139.473
X163.795Y-132.558
X163.8Y-187.1
X164.15Y-148.525
X164.175Y-166.475
X164.25Y-156.0
X164.25Y-157.5
X164.25Y-159.0
X164.25Y-160.5
X164.25Y-162.0
X164.275Y-168.975
X164.35Y-181.25
X164.4Y-43.0
X164.4Y-51.05
X164.75Y-108.625
X164.781Y-113.594
X164.845Y-130.708
X164.881Y-106.625
X164.981Y-107.825
X165.045Y-128.708
X165.075Y-166.75
X165.15Y-152.1
X165.15Y-181.3
X165.16Y-149.37
X165.175Y-47.625
X165.225Y-46.325
X165.225Y-170.125
X165.481Y-58.225
X165.582Y-66.825
X165.95Y-168.475
X165.95Y-181.35
X166.0Y-46.35
X166.0Y-47.725
X166.075Y-167.0
X166.25Y-156.0
X166.25Y-157.5
X166.25Y-159.0
X166.25Y-160.5
X166.25Y-162.0
X166.32Y-149.39
X166.381Y-101.625
X166.51Y-167.775
X166.625Y-169.725
X166.65Y-92.025
X166.65Y-98.525
X166.65Y-151.97
X166.65Y-166.2
X166.725Y-90.75
X166.765Y-135.365
X166.765Y-140.215
X166.775Y-42.775
X166.8Y-180.75
X166.825Y-47.625
X166.83Y-132.6
X166.925Y-99.65
X167.045Y-118.675
X167.082Y-55.925
X167.082Y-64.525
X167.082Y-105.025
X167.381Y-103.125
X167.575Y-42.8
X167.65Y-47.7
X167.65Y-148.535
X167.65Y-180.8
X167.675Y-166.275
X167.845Y-135.385
X167.981Y-78.025
X168.031Y-64.475
X168.061Y-55.845
X168.13Y-128.7
X168.13Y-132.55
X168.25Y-115.05
X168.25Y-156.0
X168.25Y-157.5
X168.25Y-159.0
X168.25Y-160.5
X168.25Y-162.0
X168.38Y-109.1
X168.4Y-173.15
X168.4Y-180.8
X168.425Y-47.175
X168.45Y-46.35
X168.575Y-93.075
X168.6Y-152.15
X168.67Y-166.21
X168.746Y-122.336
X169.15Y-115.0
X169.175Y-47.575
X169.175Y-90.125
X169.181Y-69.225
X169.2Y-88.75
X169.2Y-176.65
X169.2Y-180.7
X169.225Y-46.375
X169.281Y-75.525
X169.4Y-108.3
X169.465Y-143.315
X169.481Y-60.625
X169.5Y-110.55
X169.5Y-149.39
X169.65Y-152.075
X169.975Y-42.775
X169.981Y-64.125
X170.0Y-47.625
X170.0Y-173.15
X170.0Y-181.2
X170.082Y-72.725
X170.15Y-166.3
X170.25Y-156.0
X170.25Y-157.5
X170.25Y-159.0
X170.25Y-160.5
X170.25Y-162.0
X170.36Y-143.42
X170.381Y-75.725
X170.445Y-118.675
X170.48Y-167.73
X170.565Y-139.515
X170.675Y-148.535
X170.73Y-132.6
X170.775Y-42.775
X170.781Y-64.125
X170.8Y-117.05
X170.8Y-176.6
X170.8Y-181.2
X170.85Y-50.925
X170.85Y-99.85
X170.885Y-90.935
X170.95Y-93.05
X170.981Y-72.625
X171.45Y-86.325
X171.5Y-101.5
X171.55Y-47.6
X171.575Y-42.725
X171.6Y-181.2
X171.65Y-173.0
X171.78Y-130.75
X171.781Y-66.725
X171.881Y-56.825
X171.98Y-128.75
X172.082Y-106.825
X172.181Y-72.825
X172.582Y-59.225
X172.85Y-139.5
X173.05Y-154.675
X173.281Y-64.425
X173.835Y-132.615
X173.981Y-82.125
X174.1Y-135.35
X174.15Y-116.25
X174.161Y-55.845
X174.181Y-64.425
X174.51Y-155.88
X174.52Y-156.88
X174.62Y-162.88
X174.675Y-161.375
X174.825Y-153.825
X175.0Y-94.75
X175.056Y-86.85
X175.056Y-90.75
X175.135Y-128.665
X175.175Y-87.7
X175.18Y-89.45
X175.235Y-132.565
X175.275Y-135.4
X175.281Y-69.125
X175.375Y-98.525
X175.375Y-159.475
X175.381Y-91.625
X175.625Y-152.425
X175.625Y-162.0
X175.681Y-60.525
X175.685Y-122.29
X175.781Y-72.525
X175.96Y-90.1
X176.0Y-99.5
X176.181Y-63.925
X176.275Y-172.475
X176.375Y-85.2
X176.481Y-82.125
X176.635Y-143.465
X176.665Y-106.585
X176.675Y-128.65
X176.781Y-72.525
X177.082Y-63.925
X177.125Y-156.9
X177.185Y-118.665
X177.25Y-158.8
X177.281Y-80.825
X177.5Y-97.325
X177.675Y-170.175
X177.685Y-139.565
X177.685Y-143.465
X177.75Y-132.525
X177.825Y-94.75
X177.825Y-135.225
X177.95Y-85.225
X178.125Y-87.625
X178.4Y-168.925
X178.7Y-45.0
X179.2Y-167.375
T2
X145.0Y-37.0
X145.0Y-187.0
X175.0Y-37.0
X175.0Y-187.0
M30
